<?xml version="1.0" encoding="utf-8"?>

<svg fill="#000000" width="15" height="15" viewBox="0 0 24 24" version="1.1" xmlns="http://www.w3.org/2000/svg">
    <title>maximize</title>
    <path d="M13.72 13.56c-0.48 0-0.84-0.36-0.84-0.84v-2.32h-2.32c-0.48 0-0.84-0.36-0.84-0.84s0.36-0.84 0.84-0.84v0h3.16c0.48 0 0.84 0.36 0.84 0.84v3.16c0 0.48-0.4 0.84-0.84 0.84zM13.72 23.28h-3.16c-0.48 0-0.84-0.36-0.84-0.84s0.36-0.84 0.84-0.84h2.32v-2.32c0-0.48 0.36-0.84 0.84-0.84v0c0.48 0 0.84 0.36 0.84 0.84v3.16c0 0.48-0.4 0.84-0.84 0.84zM4 23.28v0h-3.16c-0.48 0-0.84-0.36-0.84-0.84v-3.16c0-0.48 0.36-0.84 0.84-0.84s0.84 0.36 0.84 0.84v2.32h2.32c0.48 0 0.84 0.36 0.84 0.84s-0.4 0.84-0.84 0.84zM0.84 13.56v0c-0.48 0-0.84-0.36-0.84-0.84v-3.16c0-0.48 0.36-0.84 0.84-0.84h3.16c0.48 0 0.84 0.36 0.84 0.84s-0.36 0.84-0.84 0.84h-2.32v2.32c0 0.48-0.36 0.84-0.84 0.84z"></path>
</svg>